<?xml version="1.0" encoding="UTF-8" standalone="no"?>
<!DOCTYPE svg PUBLIC "-//W3C//DTD SVG 1.1//EN"
 "http://www.w3.org/Graphics/SVG/1.1/DTD/svg11.dtd">
<!-- Generated by graphviz version 2.40.1 (20161225.0304)
 -->
<!-- Title: UmlClassDiagram Pages: 1 -->
<svg width="1150pt" height="531pt"
 viewBox="0.00 0.00 1149.74 530.80" xmlns="http://www.w3.org/2000/svg" xmlns:xlink="http://www.w3.org/1999/xlink">
<g id="graph0" class="graph" transform="scale(1 1) rotate(0) translate(4 526.8)">
<title>UmlClassDiagram</title>
<polygon fill="#ffffff" stroke="transparent" points="-4,4 -4,-526.8 1145.7389,-526.8 1145.7389,4 -4,4"/>
<!-- 0 -->
<g id="node1" class="node">
<title>0</title>
<polygon fill="#f2f2f2" stroke="#000000" points="0,-.5 0,-175.7 222.8654,-175.7 222.8654,-.5 0,-.5"/>
<text text-anchor="middle" x="111.4327" y="-159.1" font-family="Times,serif" font-size="14.00" fill="#000000">Migrations</text>
<polyline fill="none" stroke="#000000" points="0,-150.9 222.8654,-150.9 "/>
<text text-anchor="start" x="8" y="-134.3" font-family="Times,serif" font-size="14.00" fill="#000000">Public:</text>
<text text-anchor="start" x="8" y="-117.5" font-family="Times,serif" font-size="14.00" fill="#000000"> &#160;&#160;owner: address</text>
<text text-anchor="start" x="8" y="-100.7" font-family="Times,serif" font-size="14.00" fill="#000000"> &#160;&#160;last_completed_migration: uint256</text>
<polyline fill="none" stroke="#000000" points="0,-92.5 222.8654,-92.5 "/>
<text text-anchor="start" x="8" y="-75.9" font-family="Times,serif" font-size="14.00" fill="#000000">Public:</text>
<text text-anchor="start" x="8" y="-59.1" font-family="Times,serif" font-size="14.00" fill="#000000"> &#160;&#160;&#160;&lt;&lt;modifier&gt;&gt; restricted()</text>
<text text-anchor="start" x="8" y="-42.3" font-family="Times,serif" font-size="14.00" fill="#000000"> &#160;&#160;&#160;constructor()</text>
<text text-anchor="start" x="8" y="-25.5" font-family="Times,serif" font-size="14.00" fill="#000000"> &#160;&#160;&#160;setCompleted(completed: uint)</text>
<text text-anchor="start" x="8" y="-8.7" font-family="Times,serif" font-size="14.00" fill="#000000"> &#160;&#160;&#160;upgrade(new_address: address)</text>
</g>
<!-- 0&#45;&gt;0 -->
<g id="edge5" class="edge">
<title>0&#45;&gt;0</title>
<path fill="none" stroke="#000000" stroke-dasharray="5,2" d="M223.2683,-45.9521C234.0398,-54.5038 240.8654,-68.5531 240.8654,-88.1 240.8654,-102.9129 236.9456,-114.5686 230.3592,-123.0672"/>
<polygon fill="#000000" stroke="#000000" points="227.8043,-120.6732 223.2683,-130.2479 232.7851,-125.5918 227.8043,-120.6732"/>
</g>
<!-- 1 -->
<g id="node2" class="node">
<title>1</title>
<polygon fill="#f2f2f2" stroke="#000000" points="259.0277,-42.5 259.0277,-133.7 483.8377,-133.7 483.8377,-42.5 259.0277,-42.5"/>
<text text-anchor="middle" x="371.4327" y="-117.1" font-family="Times,serif" font-size="14.00" fill="#000000">MyToken</text>
<polyline fill="none" stroke="#000000" points="259.0277,-108.9 483.8377,-108.9 "/>
<text text-anchor="middle" x="371.4327" y="-92.3" font-family="Times,serif" font-size="14.00" fill="#000000"> </text>
<polyline fill="none" stroke="#000000" points="259.0277,-84.1 483.8377,-84.1 "/>
<text text-anchor="start" x="267.0277" y="-67.5" font-family="Times,serif" font-size="14.00" fill="#000000">Public:</text>
<text text-anchor="start" x="267.0277" y="-50.7" font-family="Times,serif" font-size="14.00" fill="#000000"> &#160;&#160;&#160;constructor(initialSupply: uint256)</text>
</g>
<!-- 2 -->
<g id="node3" class="node">
<title>2</title>
<polygon fill="#f2f2f2" stroke="#000000" points="423.1265,-212.7 423.1265,-522.3 1141.7389,-522.3 1141.7389,-212.7 423.1265,-212.7"/>
<text text-anchor="middle" x="782.4327" y="-505.7" font-family="Times,serif" font-size="14.00" fill="#000000">PersonCreation</text>
<polyline fill="none" stroke="#000000" points="423.1265,-497.5 1141.7389,-497.5 "/>
<text text-anchor="start" x="431.1265" y="-480.9" font-family="Times,serif" font-size="14.00" fill="#000000">Public:</text>
<text text-anchor="start" x="431.1265" y="-464.1" font-family="Times,serif" font-size="14.00" fill="#000000"> &#160;&#160;students: Student[]</text>
<text text-anchor="start" x="431.1265" y="-447.3" font-family="Times,serif" font-size="14.00" fill="#000000"> &#160;&#160;student_id_to_address: mapping(uint=&gt;address)</text>
<text text-anchor="start" x="431.1265" y="-430.5" font-family="Times,serif" font-size="14.00" fill="#000000"> &#160;&#160;student_id_count: mapping(address=&gt;uint)</text>
<text text-anchor="start" x="431.1265" y="-413.7" font-family="Times,serif" font-size="14.00" fill="#000000"> &#160;&#160;staffs: Staff[]</text>
<text text-anchor="start" x="431.1265" y="-396.9" font-family="Times,serif" font-size="14.00" fill="#000000"> &#160;&#160;staff_id_to_address: mapping(uint=&gt;address)</text>
<text text-anchor="start" x="431.1265" y="-380.1" font-family="Times,serif" font-size="14.00" fill="#000000"> &#160;&#160;staff_id_count: mapping(address=&gt;uint)</text>
<text text-anchor="start" x="431.1265" y="-363.3" font-family="Times,serif" font-size="14.00" fill="#000000"> &#160;&#160;visitors: Visitor[]</text>
<text text-anchor="start" x="431.1265" y="-346.5" font-family="Times,serif" font-size="14.00" fill="#000000"> &#160;&#160;visitor_id_to_address: mapping(uint=&gt;address)</text>
<text text-anchor="start" x="431.1265" y="-329.7" font-family="Times,serif" font-size="14.00" fill="#000000"> &#160;&#160;visitor_id_count: mapping(address=&gt;uint)</text>
<polyline fill="none" stroke="#000000" points="423.1265,-321.5 1141.7389,-321.5 "/>
<text text-anchor="start" x="431.1265" y="-304.9" font-family="Times,serif" font-size="14.00" fill="#000000">External:</text>
<text text-anchor="start" x="431.1265" y="-288.1" font-family="Times,serif" font-size="14.00" fill="#000000"> &#160;&#160;&#160;Creat_Student(_name: string, _birth_date: uint8, _class: string, _international: bool)</text>
<text text-anchor="start" x="431.1265" y="-271.3" font-family="Times,serif" font-size="14.00" fill="#000000"> &#160;&#160;&#160;Creat_Staff(_name: string, _birth_date: uint8, _job: string, _addOfStaff: address)</text>
<text text-anchor="start" x="431.1265" y="-254.5" font-family="Times,serif" font-size="14.00" fill="#000000"> &#160;&#160;&#160;Creat_Visitor(_name: string, _birth_date: uint8, _visit_day_begin: uint32, _visit_day_end: uint32, _addOfVisitor: address)</text>
<text text-anchor="start" x="431.1265" y="-237.7" font-family="Times,serif" font-size="14.00" fill="#000000">Public:</text>
<text text-anchor="start" x="431.1265" y="-220.9" font-family="Times,serif" font-size="14.00" fill="#000000"> &#160;&#160;&#160;&lt;&lt;event&gt;&gt; NewPerson(name: string, birth_date: uint8)</text>
</g>
<!-- 2struct0 -->
<g id="node4" class="node">
<title>2struct0</title>
<polygon fill="#f2f2f2" stroke="#000000" points="501.4197,-29.7 501.4197,-146.5 641.4457,-146.5 641.4457,-29.7 501.4197,-29.7"/>
<text text-anchor="middle" x="571.4327" y="-129.9" font-family="Times,serif" font-size="14.00" fill="#000000">&lt;&lt;struct&gt;&gt;</text>
<text text-anchor="middle" x="571.4327" y="-113.1" font-family="Times,serif" font-size="14.00" fill="#000000">Person</text>
<polyline fill="none" stroke="#000000" points="501.4197,-104.9 641.4457,-104.9 "/>
<text text-anchor="start" x="509.4197" y="-88.3" font-family="Times,serif" font-size="14.00" fill="#000000">name: string</text>
<text text-anchor="start" x="509.4197" y="-71.5" font-family="Times,serif" font-size="14.00" fill="#000000">certificate: string</text>
<text text-anchor="start" x="509.4197" y="-54.7" font-family="Times,serif" font-size="14.00" fill="#000000">birth_date: uint8</text>
<text text-anchor="start" x="509.4197" y="-37.9" font-family="Times,serif" font-size="14.00" fill="#000000">token_balance: uint32</text>
</g>
<!-- 2struct0&#45;&gt;2 -->
<g id="edge1" class="edge">
<title>2struct0&#45;&gt;2</title>
<path fill="none" stroke="#000000" d="M615.6652,-146.6714C628.3868,-163.517 642.9274,-182.7711 658.001,-202.7311"/>
<polygon fill="#000000" stroke="#000000" points="658.2061,-203.0028 665.014,-205.3803 665.4379,-212.5789 658.63,-210.2015 658.2061,-203.0028"/>
</g>
<!-- 2struct1 -->
<g id="node5" class="node">
<title>2struct1</title>
<polygon fill="#f2f2f2" stroke="#000000" points="659.9134,-38.1 659.9134,-138.1 778.952,-138.1 778.952,-38.1 659.9134,-38.1"/>
<text text-anchor="middle" x="719.4327" y="-121.5" font-family="Times,serif" font-size="14.00" fill="#000000">&lt;&lt;struct&gt;&gt;</text>
<text text-anchor="middle" x="719.4327" y="-104.7" font-family="Times,serif" font-size="14.00" fill="#000000">Student</text>
<polyline fill="none" stroke="#000000" points="659.9134,-96.5 778.952,-96.5 "/>
<text text-anchor="start" x="667.9134" y="-79.9" font-family="Times,serif" font-size="14.00" fill="#000000">person: Person</text>
<text text-anchor="start" x="667.9134" y="-63.1" font-family="Times,serif" font-size="14.00" fill="#000000">class: string</text>
<text text-anchor="start" x="667.9134" y="-46.3" font-family="Times,serif" font-size="14.00" fill="#000000">international: bool</text>
</g>
<!-- 2struct1&#45;&gt;2 -->
<g id="edge2" class="edge">
<title>2struct1&#45;&gt;2</title>
<path fill="none" stroke="#000000" d="M730.7686,-138.3738C734.8563,-156.5024 739.7255,-178.097 744.8164,-200.6747"/>
<polygon fill="#000000" stroke="#000000" points="744.8562,-200.8518 750.0781,-205.8249 747.4959,-212.5579 742.274,-207.5847 744.8562,-200.8518"/>
</g>
<!-- 2struct2 -->
<g id="node6" class="node">
<title>2struct2</title>
<polygon fill="#f2f2f2" stroke="#000000" points="797.0263,-38.1 797.0263,-138.1 895.8391,-138.1 895.8391,-38.1 797.0263,-38.1"/>
<text text-anchor="middle" x="846.4327" y="-121.5" font-family="Times,serif" font-size="14.00" fill="#000000">&lt;&lt;struct&gt;&gt;</text>
<text text-anchor="middle" x="846.4327" y="-104.7" font-family="Times,serif" font-size="14.00" fill="#000000">Staff</text>
<polyline fill="none" stroke="#000000" points="797.0263,-96.5 895.8391,-96.5 "/>
<text text-anchor="start" x="805.0263" y="-79.9" font-family="Times,serif" font-size="14.00" fill="#000000">person: Person</text>
<text text-anchor="start" x="805.0263" y="-63.1" font-family="Times,serif" font-size="14.00" fill="#000000">s: address</text>
<text text-anchor="start" x="805.0263" y="-46.3" font-family="Times,serif" font-size="14.00" fill="#000000">job: string</text>
</g>
<!-- 2struct2&#45;&gt;2 -->
<g id="edge3" class="edge">
<title>2struct2&#45;&gt;2</title>
<path fill="none" stroke="#000000" d="M834.9169,-138.3738C830.7643,-156.5024 825.8178,-178.097 820.6461,-200.6747"/>
<polygon fill="#000000" stroke="#000000" points="820.6035,-200.8608 823.1628,-207.6025 817.9241,-212.5579 815.3648,-205.8162 820.6035,-200.8608"/>
</g>
<!-- 2struct3 -->
<g id="node7" class="node">
<title>2struct3</title>
<polygon fill="#f2f2f2" stroke="#000000" points="914.1287,-29.7 914.1287,-146.5 1062.7367,-146.5 1062.7367,-29.7 914.1287,-29.7"/>
<text text-anchor="middle" x="988.4327" y="-129.9" font-family="Times,serif" font-size="14.00" fill="#000000">&lt;&lt;struct&gt;&gt;</text>
<text text-anchor="middle" x="988.4327" y="-113.1" font-family="Times,serif" font-size="14.00" fill="#000000">Visitor</text>
<polyline fill="none" stroke="#000000" points="914.1287,-104.9 1062.7367,-104.9 "/>
<text text-anchor="start" x="922.1287" y="-88.3" font-family="Times,serif" font-size="14.00" fill="#000000">person: Person</text>
<text text-anchor="start" x="922.1287" y="-71.5" font-family="Times,serif" font-size="14.00" fill="#000000">v: address</text>
<text text-anchor="start" x="922.1287" y="-54.7" font-family="Times,serif" font-size="14.00" fill="#000000">visit_day_begin: uint32</text>
<text text-anchor="start" x="922.1287" y="-37.9" font-family="Times,serif" font-size="14.00" fill="#000000">visit_day_end: uint32</text>
</g>
<!-- 2struct3&#45;&gt;2 -->
<g id="edge4" class="edge">
<title>2struct3&#45;&gt;2</title>
<path fill="none" stroke="#000000" d="M945.2483,-146.6714C932.8282,-163.517 918.6322,-182.7711 903.9158,-202.7311"/>
<polygon fill="#000000" stroke="#000000" points="903.7764,-202.9203 903.4353,-210.1234 896.6551,-212.5789 896.9962,-205.3759 903.7764,-202.9203"/>
</g>
</g>
</svg>
