<?xml version="1.0" encoding="UTF-8" standalone="no"?>
<!DOCTYPE svg PUBLIC "-//W3C//DTD SVG 1.1//EN"
 "http://www.w3.org/Graphics/SVG/1.1/DTD/svg11.dtd">
<!-- Generated by graphviz version 2.40.1 (20161225.0304)
 -->
<!-- Title: UmlClassDiagram Pages: 1 -->
<svg width="734pt" height="472pt"
 viewBox="0.00 0.00 733.61 472.40" xmlns="http://www.w3.org/2000/svg" xmlns:xlink="http://www.w3.org/1999/xlink">
<g id="graph0" class="graph" transform="scale(1 1) rotate(0) translate(4 468.4)">
<title>UmlClassDiagram</title>
<polygon fill="#ffffff" stroke="transparent" points="-4,4 -4,-468.4 729.6124,-468.4 729.6124,4 -4,4"/>
<!-- 0 -->
<g id="node1" class="node">
<title>0</title>
<polygon fill="#f2f2f2" stroke="#000000" points="0,-154.3 0,-463.9 725.6124,-463.9 725.6124,-154.3 0,-154.3"/>
<text text-anchor="middle" x="362.8062" y="-447.3" font-family="Times,serif" font-size="14.00" fill="#000000">PersonCreation</text>
<polyline fill="none" stroke="#000000" points="0,-439.1 725.6124,-439.1 "/>
<text text-anchor="start" x="8" y="-422.5" font-family="Times,serif" font-size="14.00" fill="#000000">Public:</text>
<text text-anchor="start" x="8" y="-405.7" font-family="Times,serif" font-size="14.00" fill="#000000"> &#160;&#160;students: Student[]</text>
<text text-anchor="start" x="8" y="-388.9" font-family="Times,serif" font-size="14.00" fill="#000000"> &#160;&#160;student_id_to_address: mapping(uint=&gt;address)</text>
<text text-anchor="start" x="8" y="-372.1" font-family="Times,serif" font-size="14.00" fill="#000000"> &#160;&#160;student_id_count: mapping(address=&gt;uint)</text>
<text text-anchor="start" x="8" y="-355.3" font-family="Times,serif" font-size="14.00" fill="#000000"> &#160;&#160;staffs: Staff[]</text>
<text text-anchor="start" x="8" y="-338.5" font-family="Times,serif" font-size="14.00" fill="#000000"> &#160;&#160;staff_id_to_address: mapping(uint=&gt;address)</text>
<text text-anchor="start" x="8" y="-321.7" font-family="Times,serif" font-size="14.00" fill="#000000"> &#160;&#160;staff_id_count: mapping(address=&gt;uint)</text>
<text text-anchor="start" x="8" y="-304.9" font-family="Times,serif" font-size="14.00" fill="#000000"> &#160;&#160;visitors: Visitor[]</text>
<text text-anchor="start" x="8" y="-288.1" font-family="Times,serif" font-size="14.00" fill="#000000"> &#160;&#160;visitor_id_to_address: mapping(uint=&gt;address)</text>
<text text-anchor="start" x="8" y="-271.3" font-family="Times,serif" font-size="14.00" fill="#000000"> &#160;&#160;visitor_id_count: mapping(address=&gt;uint)</text>
<polyline fill="none" stroke="#000000" points="0,-263.1 725.6124,-263.1 "/>
<text text-anchor="start" x="8" y="-246.5" font-family="Times,serif" font-size="14.00" fill="#000000">Internal:</text>
<text text-anchor="start" x="8" y="-229.7" font-family="Times,serif" font-size="14.00" fill="#000000"> &#160;&#160;&#160;_Creat_Staff(_name: string, _birth_date: uint8, _job: string, _addOfStaff: address)</text>
<text text-anchor="start" x="8" y="-212.9" font-family="Times,serif" font-size="14.00" fill="#000000"> &#160;&#160;&#160;_Creat_Visitor(_name: string, _birth_date: uint8, _visit_day_begin: uint32, _visit_day_end: uint32, _addOfVisitor: address)</text>
<text text-anchor="start" x="8" y="-196.1" font-family="Times,serif" font-size="14.00" fill="#000000">Public:</text>
<text text-anchor="start" x="8" y="-179.3" font-family="Times,serif" font-size="14.00" fill="#000000"> &#160;&#160;&#160;&lt;&lt;event&gt;&gt; NewPerson(name: string, birth_date: uint8)</text>
<text text-anchor="start" x="8" y="-162.5" font-family="Times,serif" font-size="14.00" fill="#000000"> &#160;&#160;&#160;Creat_Student(_name: string, _birth_date: uint8, _class: string, _international: bool)</text>
</g>
<!-- 0struct0 -->
<g id="node2" class="node">
<title>0struct0</title>
<polygon fill="#f2f2f2" stroke="#000000" points="81.7932,-.5 81.7932,-117.3 221.8192,-117.3 221.8192,-.5 81.7932,-.5"/>
<text text-anchor="middle" x="151.8062" y="-100.7" font-family="Times,serif" font-size="14.00" fill="#000000">&lt;&lt;struct&gt;&gt;</text>
<text text-anchor="middle" x="151.8062" y="-83.9" font-family="Times,serif" font-size="14.00" fill="#000000">Person</text>
<polyline fill="none" stroke="#000000" points="81.7932,-75.7 221.8192,-75.7 "/>
<text text-anchor="start" x="89.7932" y="-59.1" font-family="Times,serif" font-size="14.00" fill="#000000">name: string</text>
<text text-anchor="start" x="89.7932" y="-42.3" font-family="Times,serif" font-size="14.00" fill="#000000">certificate: string</text>
<text text-anchor="start" x="89.7932" y="-25.5" font-family="Times,serif" font-size="14.00" fill="#000000">birth_date: uint8</text>
<text text-anchor="start" x="89.7932" y="-8.7" font-family="Times,serif" font-size="14.00" fill="#000000">token_balance: uint32</text>
</g>
<!-- 0struct0&#45;&gt;0 -->
<g id="edge1" class="edge">
<title>0struct0&#45;&gt;0</title>
<path fill="none" stroke="#000000" d="M201.2763,-117.5608C208.402,-126.0103 216.0082,-135.0295 223.8919,-144.3779"/>
<polygon fill="#000000" stroke="#000000" points="224.1244,-144.6537 231.0504,-146.6617 231.8607,-153.8271 224.9347,-151.8191 224.1244,-144.6537"/>
</g>
<!-- 0struct1 -->
<g id="node3" class="node">
<title>0struct1</title>
<polygon fill="#f2f2f2" stroke="#000000" points="240.2869,-8.9 240.2869,-108.9 359.3255,-108.9 359.3255,-8.9 240.2869,-8.9"/>
<text text-anchor="middle" x="299.8062" y="-92.3" font-family="Times,serif" font-size="14.00" fill="#000000">&lt;&lt;struct&gt;&gt;</text>
<text text-anchor="middle" x="299.8062" y="-75.5" font-family="Times,serif" font-size="14.00" fill="#000000">Student</text>
<polyline fill="none" stroke="#000000" points="240.2869,-67.3 359.3255,-67.3 "/>
<text text-anchor="start" x="248.2869" y="-50.7" font-family="Times,serif" font-size="14.00" fill="#000000">person: Person</text>
<text text-anchor="start" x="248.2869" y="-33.9" font-family="Times,serif" font-size="14.00" fill="#000000">class: string</text>
<text text-anchor="start" x="248.2869" y="-17.1" font-family="Times,serif" font-size="14.00" fill="#000000">international: bool</text>
</g>
<!-- 0struct1&#45;&gt;0 -->
<g id="edge2" class="edge">
<title>0struct1&#45;&gt;0</title>
<path fill="none" stroke="#000000" d="M312.4038,-108.9304C314.9757,-119.1446 317.8144,-130.4183 320.7949,-142.2553"/>
<polygon fill="#000000" stroke="#000000" points="320.8879,-142.6248 326.2319,-147.4664 323.8181,-154.2615 318.4741,-149.4199 320.8879,-142.6248"/>
</g>
<!-- 0struct2 -->
<g id="node4" class="node">
<title>0struct2</title>
<polygon fill="#f2f2f2" stroke="#000000" points="377.3998,-17.3 377.3998,-100.5 476.2126,-100.5 476.2126,-17.3 377.3998,-17.3"/>
<text text-anchor="middle" x="426.8062" y="-83.9" font-family="Times,serif" font-size="14.00" fill="#000000">&lt;&lt;struct&gt;&gt;</text>
<text text-anchor="middle" x="426.8062" y="-67.1" font-family="Times,serif" font-size="14.00" fill="#000000">Staff</text>
<polyline fill="none" stroke="#000000" points="377.3998,-58.9 476.2126,-58.9 "/>
<text text-anchor="start" x="385.3998" y="-42.3" font-family="Times,serif" font-size="14.00" fill="#000000">person: Person</text>
<text text-anchor="start" x="385.3998" y="-25.5" font-family="Times,serif" font-size="14.00" fill="#000000">job: string</text>
</g>
<!-- 0struct2&#45;&gt;0 -->
<g id="edge3" class="edge">
<title>0struct2&#45;&gt;0</title>
<path fill="none" stroke="#000000" d="M416.094,-100.7779C412.9607,-113.0274 409.3289,-127.2252 405.4629,-142.3389"/>
<polygon fill="#000000" stroke="#000000" points="405.4391,-142.4322 407.8274,-149.2363 402.4653,-154.0579 400.077,-147.2538 405.4391,-142.4322"/>
</g>
<!-- 0struct3 -->
<g id="node5" class="node">
<title>0struct3</title>
<polygon fill="#f2f2f2" stroke="#000000" points="494.5022,-8.9 494.5022,-108.9 643.1102,-108.9 643.1102,-8.9 494.5022,-8.9"/>
<text text-anchor="middle" x="568.8062" y="-92.3" font-family="Times,serif" font-size="14.00" fill="#000000">&lt;&lt;struct&gt;&gt;</text>
<text text-anchor="middle" x="568.8062" y="-75.5" font-family="Times,serif" font-size="14.00" fill="#000000">Visitor</text>
<polyline fill="none" stroke="#000000" points="494.5022,-67.3 643.1102,-67.3 "/>
<text text-anchor="start" x="502.5022" y="-50.7" font-family="Times,serif" font-size="14.00" fill="#000000">person: Person</text>
<text text-anchor="start" x="502.5022" y="-33.9" font-family="Times,serif" font-size="14.00" fill="#000000">visit_day_begin: uint32</text>
<text text-anchor="start" x="502.5022" y="-17.1" font-family="Times,serif" font-size="14.00" fill="#000000">visit_day_end: uint32</text>
</g>
<!-- 0struct3&#45;&gt;0 -->
<g id="edge4" class="edge">
<title>0struct3&#45;&gt;0</title>
<path fill="none" stroke="#000000" d="M527.6141,-108.9304C518.5911,-119.8894 508.5639,-132.068 498.0372,-144.8534"/>
<polygon fill="#000000" stroke="#000000" points="497.9186,-144.9975 497.1929,-152.172 490.2911,-154.2615 491.0168,-147.087 497.9186,-144.9975"/>
</g>
</g>
</svg>
